<?xml version="1.0" encoding="utf-8"?><!-- Uploaded to: SVG Repo, www.svgrepo.com, Generator: SVG Repo Mixer Tools -->
<svg version="1.1" id="Uploaded to svgrepo.com" xmlns="http://www.w3.org/2000/svg" xmlns:xlink="http://www.w3.org/1999/xlink" 
	 width="800px" height="800px" viewBox="0 0 32 32" xml:space="preserve">
<style type="text/css">
	.linesandangles_een{fill:#111918;}
</style>
<path class="linesandangles_een" d="M28,16c0-2.209-1.791-4-4-4c-2.209,0-4,1.791-4,4c0,1.862,1.278,3.412,3,3.859V21
	c0,1.654-1.346,3-3,3h-1c-1.654,0-3-1.346-3-3v-1.141c1.722-0.446,3-1.997,3-3.859c0-1.862-1.278-3.413-3-3.859V4h-2v8.141
	c-1.722,0.446-3,1.997-3,3.859s1.278,3.412,3,3.859V21c0,1.654-1.346,3-3,3h-1c-1.654,0-3-1.346-3-3v-1.141
	c1.722-0.446,3-1.997,3-3.859c0-2.209-1.791-4-4-4c-2.209,0-4,1.791-4,4c0,1.862,1.278,3.412,3,3.859V21c0,2.757,2.243,5,5,5h1
	c1.13,0,2.162-0.391,3-1.026V26l-1,1l2,2l2-2l-1-1v-1.026C16.838,25.609,17.87,26,19,26h1c2.757,0,5-2.243,5-5v-1.141
	C26.722,19.412,28,17.862,28,16z M4,16c0-1.103,0.897-2,2-2c1.103,0,2,0.897,2,2c0,1.103-0.897,2-2,2C4.897,18,4,17.103,4,16z
	 M13,16c0-1.103,0.897-2,2-2c1.103,0,2,0.897,2,2c0,1.103-0.897,2-2,2C13.897,18,13,17.103,13,16z M24,18c-1.103,0-2-0.897-2-2
	c0-1.103,0.897-2,2-2c1.103,0,2,0.897,2,2C26,17.103,25.103,18,24,18z"/>
</svg>